<svg width="327" height="76" viewBox="0 0 327 76" fill="none" xmlns="http://www.w3.org/2000/svg">
<mask id="mask0_148_311" style="mask-type:luminance" maskUnits="userSpaceOnUse" x="0" y="56" width="25" height="20">
<path d="M0 56.625H24.4583V76H0V56.625Z" fill="white"/>
</mask>
<g mask="url(#mask0_148_311)">
<path d="M22.1302 75.5625H1.20317C0.552123 75.5625 0.020874 75.0313 0.020874 74.3802L0.0625407 57.849C0.0677487 57.1979 0.59379 56.6719 1.24483 56.6719H22.1719C22.823 56.6719 23.349 57.2031 23.349 57.8542L23.3073 74.3854C23.3073 75.0365 22.7813 75.5625 22.1302 75.5625Z" fill="white"/>
</g>
<mask id="mask1_148_311" style="mask-type:luminance" maskUnits="userSpaceOnUse" x="24" y="0" width="58" height="76">
<path d="M24.4584 0H82V76H24.4584V0Z" fill="white"/>
</mask>
<g mask="url(#mask1_148_311)">
<path d="M53.5365 38.276C53.3126 37.9687 52.9584 37.7812 52.573 37.7812H25.6407C24.6824 37.7812 24.1251 38.8646 24.6771 39.6458L49.9011 75.0677C50.1251 75.3802 50.4792 75.5625 50.8646 75.5625H77.7969C78.7553 75.5625 79.3126 74.4791 78.7605 73.6979L53.5365 38.276ZM80.724 37.7812H53.7917C53.4115 37.7812 53.0521 37.5989 52.8334 37.2864L27.6094 1.86977C27.0521 1.08852 27.6094 0.00518799 28.5678 0.00518799H55.5053C55.8855 0.00518799 56.2449 0.18748 56.4636 0.49998L81.6876 35.9166C82.2449 36.6979 81.6824 37.7812 80.724 37.7812Z" fill="url(#paint0_linear_148_311)"/>
</g>
<path d="M95.2274 48.2832L86.644 21.5957H93.1024L95.644 29.7207L98.4774 38.4915L101.519 29.7207L104.373 21.5957H110.144L112.998 29.7207L116.082 38.5957L118.936 29.7207L121.498 21.5957H127.894L119.29 48.2832H113.332L107.269 31.0124L101.207 48.2832H95.2274Z" fill="white"/>
<path d="M139.493 48.8249C137.352 48.8249 135.462 48.3769 133.826 47.4915C132.186 46.6061 130.91 45.3665 129.993 43.7832C129.076 42.1894 128.618 40.3457 128.618 38.2623C128.618 36.179 129.081 34.3561 130.014 32.7832C130.941 31.1998 132.227 29.9655 133.868 29.0748C135.503 28.1894 137.41 27.7415 139.576 27.7415C141.852 27.7415 143.826 28.2519 145.493 29.2623C147.16 30.278 148.43 31.6998 149.305 33.5332C150.18 35.3665 150.555 37.5019 150.43 39.929H134.389C134.665 41.304 135.269 42.3561 136.201 43.0748C137.144 43.7988 138.274 44.1582 139.597 44.1582C140.566 44.1582 141.451 43.9811 142.243 43.6165C143.045 43.2415 143.691 42.7311 144.18 42.0748H150.055C149.191 44.1894 147.831 45.8405 145.972 47.0332C144.108 48.2311 141.951 48.8249 139.493 48.8249ZM134.43 36.2832H144.826C144.493 35.0644 143.873 34.1061 142.972 33.4082C142.066 32.6998 140.941 32.3457 139.597 32.3457C138.331 32.3457 137.233 32.6998 136.305 33.4082C135.373 34.1061 134.748 35.0644 134.43 36.2832Z" fill="white"/>
<path d="M160.3 48.6582C157.936 48.6582 156.071 48.1113 154.696 47.0124C153.332 45.903 152.655 44.3821 152.655 42.4498C152.655 40.5905 153.264 39.1113 154.488 38.0123C155.722 36.903 157.384 36.3457 159.467 36.3457H166.717V35.429C166.717 34.4446 166.352 33.653 165.634 33.054C164.925 32.4603 163.998 32.1582 162.863 32.1582C161.915 32.1582 161.113 32.3769 160.446 32.804C159.79 33.2363 159.373 33.804 159.196 34.5123H153.634C153.993 32.3353 154.977 30.6582 156.592 29.4915C158.201 28.3248 160.28 27.7415 162.821 27.7415C165.821 27.7415 168.16 28.5019 169.842 30.0123C171.535 31.5123 172.384 33.5905 172.384 36.2415V48.2832H168.092L167.446 45.9498C165.681 47.7571 163.3 48.6582 160.3 48.6582ZM158.363 42.2207C158.363 42.903 158.66 43.4603 159.259 43.8873C159.852 44.304 160.644 44.5123 161.634 44.5123C163.092 44.5123 164.29 44.0957 165.238 43.2623C166.196 42.4186 166.701 41.3196 166.759 39.9707H161.259C160.394 39.9707 159.696 40.179 159.155 40.5957C158.623 41.0019 158.363 41.5436 158.363 42.2207Z" fill="white"/>
<path d="M176.661 48.2832V20.0748H182.453V48.2832H176.661Z" fill="white"/>
<path d="M196.753 48.2832C194.211 48.2832 192.258 47.6321 190.899 46.3248C189.534 45.0227 188.857 43.1477 188.857 40.6998V32.9915H184.982V28.2623H186.774C187.857 28.2623 188.591 28.0905 188.982 27.7415C189.383 27.3821 189.659 26.6946 189.815 25.679L190.149 23.0748H194.649V28.2623H200.149V32.9915H194.649V39.8248C194.649 42.1061 195.763 43.2415 198.003 43.2415H200.419V48.2832H196.753Z" fill="white"/>
<path d="M203.767 48.2832V20.0748H209.559V29.7832C210.319 29.1061 211.21 28.5957 212.226 28.2623C213.252 27.9186 214.319 27.7415 215.434 27.7415C218.028 27.7415 220.064 28.5436 221.538 30.1373C223.007 31.7363 223.747 33.9394 223.747 36.7415V48.2832H217.955V37.304C217.955 35.8352 217.601 34.6998 216.892 33.9082C216.194 33.1061 215.231 32.6998 213.997 32.6998C212.663 32.6998 211.585 33.153 210.767 34.054C209.96 34.9446 209.559 36.179 209.559 37.7623V48.2832H203.767Z" fill="white"/>
<path d="M236.149 48.2832V21.5957H241.295L253.066 37.8457V21.5957H259.087V48.2832H253.941L242.17 31.929V48.2832H236.149Z" fill="url(#paint1_linear_148_311)"/>
<path d="M273.507 48.8249C271.367 48.8249 269.476 48.3769 267.841 47.4915C266.2 46.6061 264.924 45.3665 264.007 43.7832C263.091 42.1894 262.632 40.3457 262.632 38.2623C262.632 36.179 263.096 34.3561 264.028 32.7832C264.955 31.1998 266.242 29.9655 267.882 29.0748C269.518 28.1894 271.424 27.7415 273.591 27.7415C275.867 27.7415 277.841 28.2519 279.507 29.2623C281.174 30.278 282.445 31.6998 283.32 33.5332C284.195 35.3665 284.57 37.5019 284.445 39.929H268.403C268.679 41.304 269.283 42.3561 270.216 43.0748C271.158 43.7988 272.289 44.1582 273.611 44.1582C274.58 44.1582 275.466 43.9811 276.257 43.6165C277.059 43.2415 277.705 42.7311 278.195 42.0748H284.07C283.205 44.1894 281.846 45.8405 279.986 47.0332C278.122 48.2311 275.966 48.8249 273.507 48.8249ZM268.445 36.2832H278.841C278.507 35.0644 277.888 34.1061 276.986 33.4082C276.08 32.6998 274.955 32.3457 273.611 32.3457C272.346 32.3457 271.247 32.6998 270.32 33.4082C269.388 34.1061 268.763 35.0644 268.445 36.2832Z" fill="url(#paint2_linear_148_311)"/>
<path d="M295.356 48.8249C293.523 48.8249 291.924 48.5332 290.565 47.9499C289.2 47.3561 288.148 46.5332 287.398 45.4915C286.648 44.4498 286.273 43.2363 286.273 41.8457H291.96C291.986 42.653 292.304 43.2988 292.919 43.7832C293.528 44.2728 294.361 44.5123 295.419 44.5123C296.335 44.5123 297.044 44.3405 297.544 43.9915C298.054 43.6478 298.315 43.179 298.315 42.5957C298.315 41.9707 297.971 41.4498 297.294 41.0332C296.611 40.6061 295.492 40.2623 293.94 40.0123C291.398 39.554 289.528 38.8196 288.335 37.804C287.138 36.7936 286.544 35.4603 286.544 33.804C286.544 31.8457 287.273 30.3457 288.731 29.304C290.19 28.2623 292.263 27.7415 294.96 27.7415C297.638 27.7415 299.731 28.3144 301.231 29.4498C302.742 30.5905 303.57 32.2155 303.71 34.3248H298.169C298.127 33.5644 297.815 32.9707 297.231 32.554C296.658 32.1373 295.898 31.929 294.94 31.929C294.065 31.929 293.377 32.0957 292.877 32.429C292.388 32.7623 292.148 33.2207 292.148 33.804C292.148 34.4186 292.466 34.8978 293.106 35.2415C293.757 35.5748 294.94 35.9238 296.648 36.2832C301.575 37.2728 304.044 39.3873 304.044 42.6373C304.044 44.5436 303.273 46.0488 301.731 47.1582C300.2 48.2728 298.075 48.8249 295.356 48.8249Z" fill="url(#paint3_linear_148_311)"/>
<path d="M317.004 48.2832C314.463 48.2832 312.509 47.6321 311.15 46.3248C309.785 45.0227 309.108 43.1477 309.108 40.6998V32.9915H305.233V28.2623H307.025C308.108 28.2623 308.843 28.0905 309.233 27.7415C309.634 27.3821 309.91 26.6946 310.067 25.679L310.4 23.0748H314.9V28.2623H320.4V32.9915H314.9V39.8248C314.9 42.1061 316.015 43.2415 318.254 43.2415H320.671V48.2832H317.004Z" fill="url(#paint4_linear_148_311)"/>
<path d="M104.981 63.4105H105.877V66.7855C105.46 67.15 104.965 67.4261 104.398 67.6188C103.84 67.8167 103.252 67.9105 102.627 67.9105C101.736 67.9105 100.939 67.7178 100.231 67.3271C99.533 66.9417 98.9862 66.4053 98.5851 65.723C98.1789 65.0303 97.981 64.2594 97.981 63.4105C97.981 62.5667 98.1789 61.8011 98.5851 61.1188C98.9862 60.4261 99.533 59.8844 100.231 59.4938C100.939 59.1084 101.741 58.9105 102.648 58.9105C103.314 58.9105 103.924 59.025 104.481 59.2438C105.049 59.4521 105.528 59.7646 105.918 60.1813L105.335 60.7855C104.637 60.0928 103.757 59.7438 102.689 59.7438C101.965 59.7438 101.314 59.9053 100.731 60.223C100.158 60.5459 99.7101 60.9834 99.3768 61.5355C99.0539 62.0928 98.8976 62.7178 98.8976 63.4105C98.8976 64.1084 99.0539 64.7334 99.3768 65.2855C99.7101 65.8428 100.158 66.2803 100.731 66.598C101.299 66.9209 101.944 67.0771 102.668 67.0771C103.569 67.0771 104.34 66.848 104.981 66.3896V63.4105Z" fill="white"/>
<path d="M109.736 58.9938H110.673V67.0146H115.611V67.8271H109.736V58.9938Z" fill="white"/>
<path d="M122.275 67.9105C121.384 67.9105 120.587 67.7178 119.879 67.3271C119.171 66.9261 118.613 66.3844 118.212 65.7021C117.822 65.025 117.629 64.2594 117.629 63.4105C117.629 62.5667 117.822 61.8011 118.212 61.1188C118.613 60.4417 119.171 59.9053 119.879 59.5146C120.587 59.1136 121.384 58.9105 122.275 58.9105C123.15 58.9105 123.931 59.1084 124.629 59.4938C125.337 59.8844 125.889 60.4261 126.296 61.1188C126.697 61.8011 126.9 62.5667 126.9 63.4105C126.9 64.2594 126.697 65.0303 126.296 65.723C125.889 66.4053 125.337 66.9417 124.629 67.3271C123.931 67.7178 123.15 67.9105 122.275 67.9105ZM122.275 67.0771C122.967 67.0771 123.592 66.9209 124.15 66.598C124.717 66.2803 125.16 65.8428 125.483 65.2855C125.801 64.7334 125.962 64.1084 125.962 63.4105C125.962 62.7178 125.801 62.0928 125.483 61.5355C125.16 60.9834 124.717 60.5459 124.15 60.223C123.592 59.9053 122.967 59.7438 122.275 59.7438C121.566 59.7438 120.926 59.9053 120.358 60.223C119.785 60.5459 119.342 60.9834 119.025 61.5355C118.702 62.0928 118.546 62.7178 118.546 63.4105C118.546 64.1084 118.702 64.7334 119.025 65.2855C119.342 65.8428 119.785 66.2803 120.358 66.598C120.926 66.9209 121.566 67.0771 122.275 67.0771Z" fill="white"/>
<path d="M135.779 63.2646C136.362 63.3896 136.81 63.6396 137.133 64.0146C137.45 64.3896 137.612 64.8792 137.612 65.4729C137.612 66.2229 137.325 66.8063 136.758 67.2229C136.2 67.6292 135.372 67.8271 134.279 67.8271H130.216V58.9938H134.029C135.013 58.9938 135.779 59.1969 136.32 59.5979C136.862 59.9886 137.133 60.5459 137.133 61.2646C137.133 61.7542 137.013 62.1709 136.779 62.5146C136.539 62.8479 136.206 63.0979 135.779 63.2646ZM131.154 59.7646V62.9729H133.966C134.685 62.9729 135.237 62.8375 135.612 62.5563C135.997 62.2802 136.195 61.8844 136.195 61.3688C136.195 60.8427 135.997 60.4469 135.612 60.1813C135.237 59.9052 134.685 59.7646 133.966 59.7646H131.154ZM134.279 67.0563C135.07 67.0563 135.664 66.9261 136.07 66.6604C136.471 66.3844 136.674 65.9625 136.674 65.3896C136.674 64.2959 135.872 63.7438 134.279 63.7438H131.154V67.0563H134.279Z" fill="white"/>
<path d="M146.502 65.4729H141.586L140.523 67.8271H139.544L143.586 58.9938H144.502L148.544 67.8271H147.565L146.502 65.4729ZM146.169 64.7021L144.044 59.9521L141.919 64.7021H146.169Z" fill="white"/>
<path d="M151.239 58.9938H152.176V67.0146H157.114V67.8271H151.239V58.9938Z" fill="white"/>
<path d="M168.277 67.9105C167.402 67.9105 166.61 67.7178 165.902 67.3271C165.204 66.9417 164.657 66.4053 164.256 65.723C163.865 65.0303 163.673 64.2594 163.673 63.4105C163.673 62.5667 163.865 61.8011 164.256 61.1188C164.657 60.4261 165.214 59.8844 165.923 59.4938C166.631 59.1084 167.423 58.9105 168.298 58.9105C168.949 58.9105 169.553 59.025 170.11 59.2438C170.662 59.4678 171.136 59.7855 171.527 60.2021L170.943 60.7855C170.246 60.0928 169.371 59.7438 168.318 59.7438C167.621 59.7438 166.985 59.9053 166.402 60.223C165.829 60.5459 165.386 60.9834 165.068 61.5355C164.746 62.0928 164.589 62.7178 164.589 63.4105C164.589 64.1084 164.746 64.7334 165.068 65.2855C165.386 65.8428 165.829 66.2803 166.402 66.598C166.985 66.9209 167.621 67.0771 168.318 67.0771C169.371 67.0771 170.246 66.723 170.943 66.0146L171.527 66.598C171.136 67.0303 170.662 67.3584 170.11 67.5771C169.553 67.8011 168.943 67.9105 168.277 67.9105Z" fill="white"/>
<path d="M180.288 65.4729H175.372L174.309 67.8271H173.33L177.372 58.9938H178.288L182.33 67.8271H181.351L180.288 65.4729ZM179.955 64.7021L177.83 59.9521L175.705 64.7021H179.955Z" fill="white"/>
<path d="M188.337 58.9938C189.462 58.9938 190.342 59.2646 190.983 59.8063C191.618 60.3375 191.941 61.0719 191.941 62.0146C191.941 62.9625 191.618 63.7021 190.983 64.2438C190.342 64.775 189.462 65.0354 188.337 65.0354H185.962V67.8271H185.025V58.9938H188.337ZM188.316 64.2229C189.191 64.2229 189.858 64.0354 190.316 63.6604C190.775 63.275 191.004 62.7229 191.004 62.0146C191.004 61.3063 190.775 60.7646 190.316 60.3896C189.858 60.0042 189.191 59.8063 188.316 59.8063H185.962V64.2229H188.316Z" fill="white"/>
<path d="M195.315 58.9938H196.253V67.8271H195.315V58.9938Z" fill="white"/>
<path d="M202.089 59.8063H198.964V58.9938H206.11V59.8063H203.006V67.8271H202.089V59.8063Z" fill="white"/>
<path d="M214.377 65.4729H209.46L208.398 67.8271H207.418L211.46 58.9938H212.377L216.418 67.8271H215.439L214.377 65.4729ZM214.043 64.7021L211.918 59.9521L209.793 64.7021H214.043Z" fill="white"/>
<path d="M219.113 58.9938H220.051V67.0146H224.988V67.8271H219.113V58.9938Z" fill="white"/>
<path d="M232.318 58.9938H233.255V67.8271H232.318V58.9938Z" fill="white"/>
<path d="M244.759 58.9938V67.8271H243.988L238.3 60.6604V67.8271H237.363V58.9938H238.134L243.821 66.1604V58.9938H244.759Z" fill="white"/>
<path d="M256.206 58.9938L252.289 67.8271H251.372L247.456 58.9938H248.456L251.851 66.6604L255.247 58.9938H256.206Z" fill="white"/>
<path d="M265.14 67.0146V67.8271H258.89V58.9938H264.952V59.8063H259.827V62.9313H264.39V63.7438H259.827V67.0146H265.14Z" fill="white"/>
<path d="M271 67.9105C270.344 67.9105 269.713 67.8063 269.104 67.598C268.505 67.3792 268.042 67.0928 267.708 66.7438L268.083 66.0355C268.401 66.3584 268.823 66.6136 269.354 66.8063C269.88 67.0042 270.427 67.098 271 67.098C271.792 67.098 272.38 66.9625 272.771 66.6813C273.172 66.3896 273.375 66.0094 273.375 65.5355C273.375 65.1917 273.26 64.9105 273.042 64.7021C272.833 64.4938 272.568 64.3375 272.25 64.223C271.943 64.098 271.51 63.973 270.958 63.848C270.292 63.6709 269.755 63.5042 269.354 63.348C268.963 63.1969 268.63 62.9625 268.354 62.6396C268.073 62.3219 267.937 61.8896 267.937 61.348C267.937 60.8896 268.052 60.4834 268.292 60.1188C268.526 59.7594 268.885 59.4678 269.375 59.2438C269.859 59.025 270.463 58.9105 271.187 58.9105C271.687 58.9105 272.177 58.9834 272.667 59.1188C273.151 59.2594 273.573 59.4521 273.937 59.7021L273.604 60.4313C273.24 60.1969 272.844 60.0146 272.417 59.8896C272 59.7646 271.588 59.7021 271.187 59.7021C270.406 59.7021 269.823 59.8584 269.437 60.1605C269.047 60.4521 268.854 60.8375 268.854 61.3063C268.854 61.6709 268.958 61.9625 269.167 62.1813C269.385 62.3896 269.656 62.5511 269.979 62.6605C270.312 62.775 270.75 62.9 271.292 63.0355C271.943 63.1917 272.463 63.348 272.854 63.5146C273.255 63.6709 273.594 63.9053 273.875 64.223C274.151 64.5303 274.292 64.9521 274.292 65.4938C274.292 65.9417 274.172 66.348 273.937 66.723C273.698 67.0875 273.333 67.3792 272.833 67.598C272.333 67.8063 271.719 67.9105 271 67.9105Z" fill="white"/>
<path d="M279.283 59.8063H276.158V58.9938H283.304V59.8063H280.2V67.8271H279.283V59.8063Z" fill="white"/>
<path d="M295.217 58.9938V67.8271H294.321V60.7646L290.842 66.7021H290.404L286.925 60.7854V67.8271H286.029V58.9938H286.8L290.633 65.5354L294.446 58.9938H295.217Z" fill="white"/>
<path d="M305.558 67.0146V67.8271H299.308V58.9938H305.371V59.8063H300.246V62.9313H304.808V63.7438H300.246V67.0146H305.558Z" fill="white"/>
<path d="M316.377 58.9938V67.8271H315.606L309.918 60.6604V67.8271H308.981V58.9938H309.752L315.439 66.1604V58.9938H316.377Z" fill="white"/>
<path d="M322.199 59.8063H319.074V58.9938H326.22V59.8063H323.115V67.8271H322.199V59.8063Z" fill="white"/>
<defs>
<linearGradient id="paint0_linear_148_311" x1="53.1835" y1="0.00518799" x2="53.1835" y2="75.5625" gradientUnits="userSpaceOnUse">
<stop stop-color="#44A08D"/>
<stop offset="1" stop-color="#193A33"/>
</linearGradient>
<linearGradient id="paint1_linear_148_311" x1="247.618" y1="21.5957" x2="247.618" y2="48.2832" gradientUnits="userSpaceOnUse">
<stop stop-color="#44A08D"/>
<stop offset="1" stop-color="#193A33"/>
</linearGradient>
<linearGradient id="paint2_linear_148_311" x1="273.55" y1="27.7415" x2="273.55" y2="48.8249" gradientUnits="userSpaceOnUse">
<stop stop-color="#44A08D"/>
<stop offset="1" stop-color="#193A33"/>
</linearGradient>
<linearGradient id="paint3_linear_148_311" x1="295.158" y1="27.7415" x2="295.158" y2="48.8249" gradientUnits="userSpaceOnUse">
<stop stop-color="#44A08D"/>
<stop offset="1" stop-color="#193A33"/>
</linearGradient>
<linearGradient id="paint4_linear_148_311" x1="312.952" y1="23.0748" x2="312.952" y2="48.2832" gradientUnits="userSpaceOnUse">
<stop stop-color="#44A08D"/>
<stop offset="1" stop-color="#193A33"/>
</linearGradient>
</defs>
</svg>
