<svg width="30" height="30" viewBox="0 0 30 30" fill="none" xmlns="http://www.w3.org/2000/svg">
<path d="M3.75 19.6875C3.75 19.4389 3.84877 19.2004 4.02459 19.0246C4.2004 18.8488 4.43886 18.75 4.6875 18.75H10.3125C10.5611 18.75 10.7996 18.8488 10.9754 19.0246C11.1512 19.2004 11.25 19.4389 11.25 19.6875C11.25 19.9361 11.1512 20.1746 10.9754 20.3504C10.7996 20.5262 10.5611 20.625 10.3125 20.625H4.6875C4.43886 20.625 4.2004 20.5262 4.02459 20.3504C3.84877 20.1746 3.75 19.9361 3.75 19.6875ZM3.75 14.0625C3.75 13.8139 3.84877 13.5754 4.02459 13.3996C4.2004 13.2238 4.43886 13.125 4.6875 13.125H17.8125C18.0611 13.125 18.2996 13.2238 18.4754 13.3996C18.6512 13.5754 18.75 13.8139 18.75 14.0625C18.75 14.3111 18.6512 14.5496 18.4754 14.7254C18.2996 14.9012 18.0611 15 17.8125 15H4.6875C4.43886 15 4.2004 14.9012 4.02459 14.7254C3.84877 14.5496 3.75 14.3111 3.75 14.0625ZM3.75 8.4375C3.75 8.18886 3.84877 7.9504 4.02459 7.77459C4.2004 7.59877 4.43886 7.5 4.6875 7.5H25.3125C25.5611 7.5 25.7996 7.59877 25.9754 7.77459C26.1512 7.9504 26.25 8.18886 26.25 8.4375C26.25 8.68614 26.1512 8.9246 25.9754 9.10041C25.7996 9.27623 25.5611 9.375 25.3125 9.375H4.6875C4.43886 9.375 4.2004 9.27623 4.02459 9.10041C3.84877 8.9246 3.75 8.68614 3.75 8.4375Z" fill="white"/>
</svg>
